<svg version="1.1" id="Layer_1" xmlns="http://www.w3.org/2000/svg" xmlns:xlink="http://www.w3.org/1999/xlink" x="0px" y="0px"
	 viewBox="0 0 128 128" style="enable-background:new 0 0 128 128;" xml:space="preserve">
<path d="M88.5,13.8c0.2,0.3,0.4,0.6,0.7,0.8c6.1,6.1,12.2,12.2,18.3,18.3c0.2,0.2,0.5,0.5,0.8,0.9c-18.4,0-36.7,0-55.1,0
	c0-0.4,0-0.8,0-1.2c0-5.9,0-11.8,0-17.6c0-0.4,0-0.8-0.1-1.2C65,13.8,76.8,13.8,88.5,13.8z"/>
<path d="M48.3,13.8c0,0.4-0.1,0.8-0.1,1.3c0,10.8,0,21.7,0,32.5c0,0.4,0,0.8,0,1.2c-6.7,0-13.3,0-20.1,0c0-11.7,0-23.3,0-35
	C34.9,13.8,41.6,13.8,48.3,13.8z"/>
<path d="M28.2,74c0-6.7,0-13.3,0-19.9c18.5,0,36.9,0,55.4,0c0,6.7,0,13.3,0,19.9C65.1,74,46.7,74,28.2,74z"/>
<path d="M28.2,114.2c0-11.6,0-23.3,0-35c6.7,0,13.3,0,20,0c0,11.6,0,23.3,0,35C41.5,114.2,34.9,114.2,28.2,114.2z"/>
<path d="M108.5,39.1c0,0.3,0,0.7,0,1c0,4.4,0,8.8,0,13.1c0,0.4-0.2,1-0.5,1.3c-6.2,6.3-12.5,12.5-18.7,18.7
	c-0.1,0.1-0.3,0.2-0.5,0.4c0-11.6,0-23,0-34.5C95.3,39.1,101.9,39.1,108.5,39.1z"/>
    <style>
        path { fill: #883AEA; }
        @media (prefers-color-scheme: dark) {
            path { fill: #883AEA; }
        }
    </style>
</svg>


   
